<svg xmlns="http://www.w3.org/2000/svg" xmlns:xlink="http://www.w3.org/1999/xlink" width="33.389" height="22.875" viewBox="0 0 45 45">
  <defs>
    <clipPath id="clip-path">
      <rect id="Retângulo_318" data-name="Retângulo 318" width="33.389" height="22.875" fill="none"/>
    </clipPath>
  </defs>
  <g id="Artwork_28" data-name="Artwork 28" transform="translate(16.695 11.438)">
    <g id="Grupo_351" data-name="Grupo 351" transform="translate(-16.695 -11.438)" clip-path="url(#clip-path)">
      <path id="Caminho_3450" data-name="Caminho 3450" d="M30.455,0H2.935A2.941,2.941,0,0,0,0,2.935V19.942a2.941,2.941,0,0,0,2.935,2.935h27.52a2.941,2.941,0,0,0,2.935-2.935V2.935A2.941,2.941,0,0,0,30.455,0M21.8,11.386l9.632-8.015V17.8Zm7.878-9.1L17.862,12.123a1.819,1.819,0,0,1-2.328,0L3.711,2.282l-.391-.326H30.07ZM1.956,3.372l9.632,8.021L1.956,17.8Zm28.5,17.549H2.935a.978.978,0,0,1-.959-.783L13.154,12.7l1.122.933a3.776,3.776,0,0,0,4.832,0l1.122-.933,11.184,7.441a.978.978,0,0,1-.959.783" transform="translate(0 0)" fill="#3156e1"/>
    </g>
  </g>
</svg>
