<svg xmlns="http://www.w3.org/2000/svg" xmlns:xlink="http://www.w3.org/1999/xlink" width="22" height="29.778" viewBox="0 0 22 29.778">
  <defs>
    <clipPath id="clip-path">
      <rect id="Retângulo_177" data-name="Retângulo 177" width="22" height="29.778" fill="none"/>
    </clipPath>
  </defs>
  <g id="Artwork_16" data-name="Artwork 16" transform="translate(11 14.889)">
    <g id="Grupo_166" data-name="Grupo 166" transform="translate(-11 -14.889)" clip-path="url(#clip-path)">
      <path id="Caminho_1274" data-name="Caminho 1274" d="M2.208,17.616,9.746,29.037a1.436,1.436,0,0,0,2.507,0L19.8,17.608a17.664,17.664,0,0,0,1.27-2.378A12.652,12.652,0,0,0,22,10.992,11,11,0,0,0,0,11a12.934,12.934,0,0,0,.93,4.238A17.737,17.737,0,0,0,2.2,17.616M11,1.294A9.714,9.714,0,0,1,20.706,11a11.6,11.6,0,0,1-.833,3.737A16.258,16.258,0,0,1,18.716,16.9L11.17,28.325c-.146.226-.194.226-.348,0L3.284,16.9a16.265,16.265,0,0,1-1.157-2.168A11.668,11.668,0,0,1,1.294,11,9.714,9.714,0,0,1,11,1.294" fill="#3156e1"/>
      <path id="Caminho_1275" data-name="Caminho 1275" d="M69.824,75.647A5.824,5.824,0,1,0,64,69.824a5.824,5.824,0,0,0,5.824,5.824m0-10.353a4.529,4.529,0,1,1-4.529,4.529,4.529,4.529,0,0,1,4.529-4.529" transform="translate(-58.824 -58.824)" fill="#3156e1"/>
    </g>
  </g>
</svg>
