<svg xmlns="http://www.w3.org/2000/svg" xmlns:xlink="http://www.w3.org/1999/xlink" width="30" height="30" viewBox="0 0 512 512">
  <defs>
    <clipPath id="clip-path">
      <rect id="Retângulo_175" data-name="Retângulo 175" width="30" height="30" transform="translate(0 -0.191)" fill="none"/>
    </clipPath>
  </defs>
  <g id="Artwork_18" data-name="Artwork 18" transform="translate(15 15.191)">
    <g id="Grupo_164" data-name="Grupo 164" transform="translate(-15 -15)" clip-path="url(#clip-path)">
      <path id="Caminho_1268" data-name="Caminho 1268" d="M29.422,14.281H27.455V11.358a3.744,3.744,0,0,0-3.744-3.744H22.692V2.8A2.8,2.8,0,0,0,19.9,0H6.579a2.788,2.788,0,0,0-2.8,2.8V9.518H2.772a2.788,2.788,0,0,0-1.453,5.174A2.788,2.788,0,0,0,2.266,18.5a2.8,2.8,0,0,0,.956,3.807,2.788,2.788,0,0,0,.561,3.523v1.706a2.8,2.8,0,0,0,2.8,2.8H19.9a2.8,2.8,0,0,0,2.788-2.8V26.524h1.019a3.752,3.752,0,0,0,3.641-2.859H29.43a.885.885,0,0,0,.877-.885V15.165a.885.885,0,0,0-.885-.885M9.367,1.777h7.741V2.8A1.011,1.011,0,0,1,16.1,3.807H10.386A1.019,1.019,0,0,1,9.367,2.8ZM1.753,12.314A1.019,1.019,0,0,1,2.772,11.3H3.783v2.03H2.772a1.019,1.019,0,0,1-1.019-1.011m.956,3.807A1.019,1.019,0,0,1,3.72,15.1H6.579a1.015,1.015,0,1,1,0,2.03H3.72a1.019,1.019,0,0,1-1.011-1.011m.956,3.807a1.019,1.019,0,0,1,1.011-1.019h1.9a1.019,1.019,0,0,1,0,2.03H4.668a1.011,1.011,0,0,1-1.011-1.011M4.6,23.736a1.019,1.019,0,1,1,1.019,1.019A1.019,1.019,0,0,1,4.6,23.736m16.311,3.807A1.019,1.019,0,0,1,19.9,28.562H6.579A1.019,1.019,0,0,1,5.56,27.543V26.524h.063a2.788,2.788,0,0,0,2.4-4.21,2.788,2.788,0,0,0,.592-4.289,2.788,2.788,0,0,0-2.038-4.692H5.56V2.8A1.019,1.019,0,0,1,6.579,1.777H7.59V2.8a2.788,2.788,0,0,0,2.8,2.788H16.1A2.788,2.788,0,0,0,18.885,2.8V1.777H19.9A1.019,1.019,0,0,1,20.923,2.8V7.614H16.1a.893.893,0,0,0-.885.893,5.655,5.655,0,0,0,5.648,5.648h.063ZM28.53,21.9H26.563a.893.893,0,0,0-.885.893,1.967,1.967,0,0,1-1.967,1.967H22.692V13.262a.893.893,0,0,0-.885-.885h-.956A3.878,3.878,0,0,1,17.084,9.4H23.7a1.967,1.967,0,0,1,1.967,1.967v3.8a.885.885,0,0,0,.893.893H28.53Z" transform="translate(-0.237 -0.261)" fill="#3156e1"/>
      <path id="Caminho_1269" data-name="Caminho 1269" d="M138.178,313.3h-3.807a.893.893,0,0,0,0,1.777h3.807a.893.893,0,0,0,0-1.777" transform="translate(-123.273 -288.814)" fill="#3156e1"/>
    </g>
  </g>
</svg>
