<svg xmlns="http://www.w3.org/2000/svg" xmlns:xlink="http://www.w3.org/1999/xlink" width="60" height="32" viewBox="0 0 60 32">
  <defs>
    <clipPath id="clip-path">
      <rect id="Ret창ngulo_194" data-name="Ret창ngulo 194" width="36" height="25" transform="translate(0.478 0.012)" fill="none"/>
    </clipPath>
  </defs>
  <g id="YOUTUBE" transform="translate(-0.441)">
    <rect id="Ret창ngulo_193" data-name="Ret창ngulo 193" width="60" height="32" rx="16" transform="translate(0.441)" fill="#f44336"/>
    <g id="YOUTUBE-2" data-name="YOUTUBE" transform="translate(29.963 16.488)">
      <g id="Grupo_180" data-name="Grupo 180" transform="translate(-18 -12.5)" clip-path="url(#clip-path)">
        <path id="Caminho_1301" data-name="Caminho 1301" d="M34.858,2.486C33.87.675,32.8.345,30.62.213S22.954,0,18.211,0,7.964.066,5.788.213,2.539.675,1.543,2.486,0,7.415,0,12.9H0c0,5.464.526,8.6,1.543,10.393s2.069,2.142,4.245,2.3,7.666.227,12.423.227,10.233-.081,12.416-.205,3.257-.484,4.238-2.3,1.543-4.929,1.543-10.393v-.015h0c0-5.486-.519-8.6-1.55-10.415" transform="translate(-0.044 -0.313)" fill="#f44336"/>
        <path id="Caminho_1302" data-name="Caminho 1302" d="M192,94.082V80l11.378,7.041Z" transform="translate(-178.391 -74.445)" fill="#fafafa"/>
      </g>
    </g>
  </g>
</svg>
