<svg id="Camada_1" data-name="Camada 1" xmlns="http://www.w3.org/2000/svg" height="46px" width="46px" viewBox="0 0 46 46"><defs><style>.cls-1{fill:none;stroke:#707070;stroke-miterlimit:10;stroke-width:0.5px;}.cls-2{fill:#707070;}</style></defs><path class="cls-1" d="M39.06,17.55a16.89,16.89,0,0,0-.16-2.66,15.47,15.47,0,0,0-2.38-6.57A15.86,15.86,0,0,0,31.27,3.2a14.9,14.9,0,0,0-5.49-2,16.67,16.67,0,0,0-7.54.47,17,17,0,0,0-6.82,4.25A16.12,16.12,0,0,0,7.6,12.49,16.41,16.41,0,0,0,7,16.25a29.51,29.51,0,0,0,.18,3.16,15.87,15.87,0,0,0,4.71,9.16c.41.39,1.56,1.38,1.68,1.48a17.75,17.75,0,0,0,2.52,1.49A16,16,0,0,0,24.7,33a15.4,15.4,0,0,0,6-1.87c.58-.32,2.34-1.6,2.43-1.67a15.19,15.19,0,0,0,3.49-4.08,16.43,16.43,0,0,0,1.78-3.95,14,14,0,0,0,.5-2.13C39,18.89,39.05,17.7,39.06,17.55Z"/><path class="cls-2" d="M32.88,30.21h0m-19.38.24.18.13.39.28a16.51,16.51,0,0,0,8.1,2.58h.16l-.48,1.29-.61,1.77-1.37,4c-.45,1.32-.91,2.63-1.37,3.94a.73.73,0,0,1-.05.12l-.09-.08-.75-.73-2.3-2.25A1.4,1.4,0,0,0,14.26,41L14,41c-1.3.16-2.63.29-3.92.42l-.39,0H9.66v0L12.61,33l.33-1L13,32l0-.1.48-1.42m19,0L33,31.79l0,.09.53,1.49c.4,1.14.81,2.27,1.2,3.41.54,1.52,1.06,3,1.59,4.55,0,.06,0,.11,0,.15h-.15l-1.45-.16-3-.32h-.13a1.26,1.26,0,0,0-.91.44l-1.89,1.85-1.16,1.14-.14.12a.77.77,0,0,0-.06-.15c-1.1-3.16-2.2-6.31-3.3-9.5l0-.07a.24.24,0,0,0,0-.08l-.47-1.28a16.49,16.49,0,0,0,8.82-3M13,32h0M32.8,29.72a.65.65,0,0,0-.34.17A15.91,15.91,0,0,1,23,33l-.84,0a15.9,15.9,0,0,1-7.86-2.5,6.89,6.89,0,0,0-1.12-.72c-.23.66-.45,1.33-.67,2l-.07.11L9.2,41.28c-.16.45,0,.7.43.7h.13c1.44-.14,2.89-.28,4.32-.45l.18,0a.94.94,0,0,1,.7.32l3.05,3a.83.83,0,0,0,.5.28c.19,0,.34-.17.46-.52.46-1.31.92-2.62,1.37-3.93l2-5.73L23,33l.69,1.87a.94.94,0,0,0,0,.16L27,44.54c.13.37.28.55.47.55a.92.92,0,0,0,.55-.32l3.05-3a.79.79,0,0,1,.56-.3h.07l4.42.48h.19c.49,0,.63-.26.44-.81q-.78-2.28-1.58-4.56l-1.74-4.9c-.22-.66-.44-1.33-.67-2Z"/></svg>