<svg id="Camada_1" data-name="Camada 1" xmlns="http://www.w3.org/2000/svg" height="46px" width="46px" viewBox="0 0 46 46"><defs><style>.cls-1{fill:#ddd;}.cls-2{fill:#959290;}.cls-3{fill:#707070;}.cls-4{fill:#868381;}.cls-5{fill:#fff;}.cls-6{fill:#3f89d4;}.cls-7{fill:#f6c29a;}</style></defs><path class="cls-1" d="M7.26,18.17a5.9,5.9,0,0,1-.07-1.92,16.5,16.5,0,0,1,.62-3.76A16.17,16.17,0,0,1,18.45,1.63,12.46,12.46,0,0,1,21.86,1c.12,0,.24,0,.33-.08h2.07L26,1.16a14.84,14.84,0,0,1,5.49,2,15.77,15.77,0,0,1,5.25,5.12,15.33,15.33,0,0,1,2.38,6.57,16.89,16.89,0,0,1,.16,2.66.81.81,0,0,1-.07.46.13.13,0,0,1,0-.18A15.74,15.74,0,0,1,32.81,28.3a15.63,15.63,0,0,1-10.29,3.18A16,16,0,0,1,7.31,17.76C7.28,17.9,7.4,18.05,7.26,18.17Z"/><path class="cls-2" d="M33.69,31.71q.86,2.45,1.73,4.91.8,2.27,1.58,4.55c.22.62,0,.87-.63.8L32,41.49a.75.75,0,0,0-.64.29l-3.05,3c-.5.49-.79.43-1-.23L24,35.07a.9.9,0,0,1,0-.16,1.11,1.11,0,0,1,.54-.1A18.19,18.19,0,0,0,32,32.56c.39-.22.75-.48,1.13-.71C33.3,31.75,33.46,31.58,33.69,31.71Z"/><path class="cls-2" d="M22.53,34.91l-2,5.73-1.38,3.93c-.21.61-.51.68-1,.24l-3-3a.94.94,0,0,0-.87-.3c-1.44.17-2.88.31-4.33.45-.52.05-.73-.2-.56-.69Q11,36.56,12.7,31.82a.6.6,0,0,1,.06-.11c.25-.13.42.05.58.16A16.67,16.67,0,0,0,17.78,34a18.21,18.21,0,0,0,4.34.83A.74.74,0,0,1,22.53,34.91Z"/><path class="cls-3" d="M7.26,18.17v-.6A16.2,16.2,0,0,0,13.43,28,15.53,15.53,0,0,0,24,31.36,16.18,16.18,0,0,0,39.16,17.58l0,.43a15.28,15.28,0,0,1-2.36,7.38,15.59,15.59,0,0,1-3.61,4.07.56.56,0,0,0-.22.26,8.3,8.3,0,0,1-2.09,1.42,15.4,15.4,0,0,1-6,1.87,16,16,0,0,1-8.63-1.47,17.75,17.75,0,0,1-2.52-1.49c-.12-.1-.26-.17-.33-.33-.42-.39-.85-.77-1.26-1.16a16,16,0,0,1-4.8-9.15A4.7,4.7,0,0,1,7.26,18.17Z"/><path class="cls-4" d="M13.43,29.72a6.89,6.89,0,0,1,1.12.72,16.13,16.13,0,0,0,18.12-.55.69.69,0,0,1,.34-.17c.23.66.45,1.33.68,2a18.21,18.21,0,0,0-1.81,1.06,19,19,0,0,1-5.39,1.9c-.73.13-1.47.21-2.2.28-.13,0-.26,0-.37,0L23.22,33l-.69,1.87a2.36,2.36,0,0,1-1.18,0,18.67,18.67,0,0,1-6.82-2.14,13.67,13.67,0,0,0-1.77-1Z"/><path class="cls-5" d="M10.62,16.87a11.6,11.6,0,0,1,1.47-6.19,12.19,12.19,0,0,1,5-5,12.62,12.62,0,0,1,3.76-1.39,12.57,12.57,0,0,1,10.73,3,12.35,12.35,0,0,1,4,7.09,9.83,9.83,0,0,1,.21,2.48A10.25,10.25,0,0,1,35.44,19a12.49,12.49,0,0,1-2,3.94,12.62,12.62,0,0,1-4.32,3.7,12.18,12.18,0,0,1-5.71,1.43A13.46,13.46,0,0,1,17.93,27a13.14,13.14,0,0,1-5.23-4.43,11.43,11.43,0,0,1-2-4.95A5.87,5.87,0,0,1,10.62,16.87Z"/><path class="cls-3" d="M10.62,16.87c.17.68.32,1.38.51,2.06a11.63,11.63,0,0,0,2.27,4.33,13.45,13.45,0,0,0,2.41,2.3,11.36,11.36,0,0,0,5.12,2.18,12.79,12.79,0,0,0,6.63-.55,13.24,13.24,0,0,0,4.09-2.47,11.89,11.89,0,0,0,2.56-3.14,11.67,11.67,0,0,0,1.53-4.64.44.44,0,0,1,.08-.15,12.12,12.12,0,0,1-2.19,7.27,12.58,12.58,0,0,1-6.1,4.76,12.21,12.21,0,0,1-5.45.72,12.71,12.71,0,0,1-11.23-10c-.17-.78-.21-1.58-.31-2.37A.29.29,0,0,1,10.62,16.87Z"/><path class="cls-6" d="M34.66,16.16c-.09-.19-.18-.38-.26-.57L31.94,9.72c-.11-.29-.21-.33-.5-.21l-.94.37a.19.19,0,0,0-.19,0,12.65,12.65,0,0,0-1.24.56.37.37,0,0,0-.18.5l.17.45c.89,2.14,1.82,4.25,2.66,6.41.06.15.13.28.3.32a.6.6,0,0,0,.37-.07c.36-.14.71-.3,1.08-.42.15-.05.89-.49,1.13-.59a.4.4,0,0,0,.26-.25C34.85,16.55,34.7,16.37,34.66,16.16Zm-2,.81a.52.52,0,1,1,0-1,.53.53,0,0,1,.52.51A.52.52,0,0,1,32.61,17Z"/><path class="cls-7" d="M15.44,17.93c-.2-.14-.38-.28-.58-.4s-.15-.19-.09-.34c.75-1.77,1.49-3.54,2.24-5.32,0-.07,0-.14.07-.21s.19-.1.29-.06c.29.09.57.19.85.3a1.88,1.88,0,0,0,1.38,0c.19-.07.38-.2.61-.11s0,.2,0,.3a3.08,3.08,0,0,1-1,1.11,5.77,5.77,0,0,0-.95.83.57.57,0,0,0,.15,1,1.79,1.79,0,0,0,1.79-.06,4.19,4.19,0,0,0,.92-.71,2.6,2.6,0,0,1,1.42-.71.91.91,0,0,1,.72.17,4.61,4.61,0,0,0,1.08.61A16.43,16.43,0,0,1,28.53,17a2.68,2.68,0,0,1,.93,2.18A1.46,1.46,0,0,1,29,20.23a1,1,0,0,1-.72.31c-.27,0-.27,0-.27.29A1.18,1.18,0,0,1,27.36,22a.53.53,0,0,1-.17,0,1.47,1.47,0,0,0-.47,0,.28.28,0,0,0-.12.21,1.17,1.17,0,0,1-1.34.92.38.38,0,0,0-.45.25,1,1,0,0,1-.76.67H23.6c-.39-.05-.47-.16-.34-.53a1.07,1.07,0,0,0-.7-1.45.51.51,0,0,1-.36-.32,1.91,1.91,0,0,0-1.11-1.18.41.41,0,0,1-.22-.23,1.2,1.2,0,0,0-.68-.7.39.39,0,0,1-.2-.22,1.49,1.49,0,0,0-1.41-1,2,2,0,0,0-1.54.33.27.27,0,0,1-.35,0c-.15-.11-.29-.23-.43-.35a2.85,2.85,0,0,0-.6-.37C15.56,18.1,15.45,18.07,15.44,17.93Z"/><path class="cls-7" d="M20.6,11.92a1.88,1.88,0,0,1,.74-.6,3.89,3.89,0,0,1,2.46-.56,11.72,11.72,0,0,1,2.27.46c.57.16,1.13.34,1.71.46a1.06,1.06,0,0,0,.7-.12c.37-.06.37-.06.52.3.68,1.61,1.34,3.21,2,4.81.07.16.07.25-.1.34a1,1,0,0,0-.33.26c-.36.25-.64.59-1,.88a5.23,5.23,0,0,0-2.18-2.33A14.31,14.31,0,0,0,24.18,14a2.87,2.87,0,0,1-.76-.48,1.27,1.27,0,0,0-1.21-.16,3.14,3.14,0,0,0-1.34.78,2.67,2.67,0,0,1-1.49.85,1.32,1.32,0,0,1-.87-.17c-.32-.18-.34-.36-.1-.63a7.73,7.73,0,0,1,1.15-1,2.72,2.72,0,0,0,.71-.84A1,1,0,0,1,20.6,11.92Z"/><path class="cls-6" d="M16.79,10.43l-1.28-.55-1-.4a.28.28,0,0,0-.42.17c-.25.65-.53,1.29-.81,1.93s-.63,1.54-.95,2.31-.75,1.76-1.13,2.64a.35.35,0,0,0,.25.53c.28.08.52.23.79.32l1.21.48a1.94,1.94,0,0,0,.51.18c.16,0,.2-.17.26-.3L17,11C17.16,10.66,17.12,10.57,16.79,10.43ZM13.43,17a.53.53,0,0,1-.54-.52.54.54,0,0,1,.53-.51.52.52,0,0,1,.52.52A.51.51,0,0,1,13.43,17Z"/><path class="cls-7" d="M20,22.9a1.55,1.55,0,0,1-.84-.36c-.28-.27-.31-.55-.1-1a2.24,2.24,0,0,1-.78-.29,1,1,0,0,1-.47-.69.44.44,0,0,0-.28-.35.72.72,0,0,1-.47-.83.73.73,0,0,1,.72-.59,6.91,6.91,0,0,1,.91,0,1.26,1.26,0,0,1,1.17,1c0,.07,0,.16.14.18.46.06.63.41.75.79,0,.14.09.16.21.17A1.48,1.48,0,0,1,22,22.32c.16,0,.32,0,.47.05a.8.8,0,0,1,.62.72.75.75,0,0,1-.45.85,1.85,1.85,0,0,1-1.78-.09.67.67,0,0,1-.3-.73c.05-.13,0-.2-.14-.2A1.47,1.47,0,0,1,20,22.9Z"/></svg>