<svg id="Camada_1" data-name="Camada 1" xmlns="http://www.w3.org/2000/svg" height="46px" width="46px" viewBox="0 0 46 46"><defs><style>.cls-1{fill:#dcc29b;}.cls-2{fill:#fe4756;}.cls-3{fill:#957854;}.cls-4{fill:#fb2b39;}.cls-5{fill:#e5caa6;}.cls-6{fill:#a48b6d;}.cls-7{fill:#fff;}</style></defs><path class="cls-1" d="M7.05,18.17A5.9,5.9,0,0,1,7,16.25a16.5,16.5,0,0,1,.62-3.76A16.17,16.17,0,0,1,18.24,1.63,12.39,12.39,0,0,1,21.65,1c.11,0,.24,0,.33-.08h2.07l1.73.25a14.9,14.9,0,0,1,5.49,2,15.86,15.86,0,0,1,5.25,5.12,15.47,15.47,0,0,1,2.38,6.57,16.89,16.89,0,0,1,.16,2.66c0,.15,0,.32-.08.46a.15.15,0,0,1,0-.18A15.69,15.69,0,0,1,32.6,28.3a15.63,15.63,0,0,1-10.29,3.18A16,16,0,0,1,7.1,17.76C7.07,17.9,7.19,18.05,7.05,18.17Z"/><path class="cls-2" d="M33.47,31.71l1.74,4.91q.8,2.27,1.58,4.55c.22.62,0,.87-.63.8l-4.42-.48a.73.73,0,0,0-.63.29l-3.05,3c-.5.49-.79.43-1-.23l-3.3-9.47a.94.94,0,0,1,0-.16,1.15,1.15,0,0,1,.55-.1,18.27,18.27,0,0,0,7.55-2.25c.39-.22.75-.48,1.13-.71C33.09,31.75,33.25,31.58,33.47,31.71Z"/><path class="cls-2" d="M22.32,34.91l-2,5.73c-.45,1.31-.91,2.62-1.37,3.93-.21.61-.51.68-1,.24l-3.05-3a.94.94,0,0,0-.88-.3c-1.43.17-2.88.31-4.32.45-.52.05-.73-.2-.56-.69l3.28-9.46.07-.11c.24-.13.41.05.58.16A16.67,16.67,0,0,0,17.57,34a18.22,18.22,0,0,0,4.33.83A.77.77,0,0,1,22.32,34.91Z"/><path class="cls-3" d="M7.05,18.17v-.6A16.2,16.2,0,0,0,13.22,28a15.53,15.53,0,0,0,10.54,3.32A16.19,16.19,0,0,0,39,17.58L39,18a15.16,15.16,0,0,1-2.35,7.38A15.59,15.59,0,0,1,33,29.46a.56.56,0,0,0-.22.26,8.48,8.48,0,0,1-2.09,1.42,15.4,15.4,0,0,1-6,1.87,16,16,0,0,1-8.63-1.47,17.75,17.75,0,0,1-2.52-1.49c-.12-.1-.27-.17-.33-.33-.42-.39-.85-.77-1.26-1.16a16,16,0,0,1-4.8-9.15A4.7,4.7,0,0,1,7.05,18.17Z"/><path class="cls-4" d="M13.22,29.72a6.89,6.89,0,0,1,1.12.72,16.13,16.13,0,0,0,18.12-.55.65.65,0,0,1,.34-.17c.23.66.45,1.33.67,2a19.27,19.27,0,0,0-1.8,1.06,19,19,0,0,1-5.39,1.9c-.73.13-1.47.21-2.21.28a.48.48,0,0,1-.37,0L23,33l-.69,1.87a2.36,2.36,0,0,1-1.18,0,18.67,18.67,0,0,1-6.82-2.14,13.67,13.67,0,0,0-1.77-1Z"/><path class="cls-5" d="M10.41,16.87a11.6,11.6,0,0,1,1.47-6.19,12.17,12.17,0,0,1,5-5,12.78,12.78,0,0,1,3.77-1.39,12.57,12.57,0,0,1,10.73,3,12.35,12.35,0,0,1,4,7.09,9.83,9.83,0,0,1,.21,2.48A10.25,10.25,0,0,1,35.23,19a12.49,12.49,0,0,1-2,3.94,12.71,12.71,0,0,1-4.32,3.7,12.18,12.18,0,0,1-5.71,1.43A13.46,13.46,0,0,1,17.72,27a12.45,12.45,0,0,1-2.35-1.42,12.29,12.29,0,0,1-2.88-3,11.43,11.43,0,0,1-2-4.95A4.41,4.41,0,0,1,10.41,16.87Z"/><path class="cls-6" d="M10.41,16.87c.17.68.32,1.38.51,2.06a11.63,11.63,0,0,0,2.27,4.33,13.45,13.45,0,0,0,2.41,2.3,11.36,11.36,0,0,0,5.12,2.18,12.79,12.79,0,0,0,6.63-.55,13.35,13.35,0,0,0,4.09-2.47A11.89,11.89,0,0,0,34,21.58a11.67,11.67,0,0,0,1.53-4.64.44.44,0,0,1,.08-.15,12.12,12.12,0,0,1-2.19,7.27,12.58,12.58,0,0,1-6.1,4.76,12.21,12.21,0,0,1-5.45.72,12.71,12.71,0,0,1-11.23-10,23.64,23.64,0,0,1-.31-2.37A.29.29,0,0,1,10.41,16.87Z"/><path class="cls-7" d="M23.05,13.1a.9.9,0,0,0-.53-.17,1.47,1.47,0,0,1-.73-.21.54.54,0,0,1-.22-.46.67.67,0,0,1,.23-.56,1.1,1.1,0,0,1,.64-.17.78.78,0,0,0,.51-.18.63.63,0,0,0,.22-.53.61.61,0,0,0-.27-.55,1.37,1.37,0,0,0-.72-.17,1,1,0,0,0-.5.13,1.61,1.61,0,0,0-.43.48,1.18,1.18,0,0,1-.32.34.87.87,0,0,1-.42.09.83.83,0,0,1-.69-.29,1,1,0,0,1-.24-.65A1.39,1.39,0,0,1,20.34,9a4,4,0,0,1,2.11-.49,3.32,3.32,0,0,1,2,.57,1.8,1.8,0,0,1,.76,1.52,1.77,1.77,0,0,1-.23.92,1.25,1.25,0,0,1-.67.52v0a1.39,1.39,0,0,1,.8.59,1.72,1.72,0,0,1,.28,1,2.72,2.72,0,0,1-.13.84,2.24,2.24,0,0,1-.48.82,2.33,2.33,0,0,1-1,.64,4.63,4.63,0,0,1-1.61.24A4.06,4.06,0,0,1,21.06,16a2.87,2.87,0,0,1-.88-.42,1.9,1.9,0,0,1-.57-.6,1.32,1.32,0,0,1-.19-.68,1,1,0,0,1,.26-.74.94.94,0,0,1,.71-.28.8.8,0,0,1,.55.16,1.37,1.37,0,0,1,.31.48,1.66,1.66,0,0,0,.32.49.83.83,0,0,0,.56.16,1.25,1.25,0,0,0,.83-.23,1,1,0,0,0,.26-.75A.67.67,0,0,0,23.05,13.1Z"/><path class="cls-7" d="M21.71,20.08a1.11,1.11,0,0,0-.18-.72.67.67,0,0,0-.54-.21.64.64,0,0,0-.51.27,1.13,1.13,0,0,0-.23.72v2A1,1,0,0,1,20,23a1.27,1.27,0,0,1-1.59,0,1,1,0,0,1-.3-.8V20.08a1.19,1.19,0,0,0-.17-.72.68.68,0,0,0-.55-.21.66.66,0,0,0-.51.27,1.19,1.19,0,0,0-.22.72v2a1,1,0,0,1-.3.8,1.25,1.25,0,0,1-1.58,0,1,1,0,0,1-.3-.8v-3.7a.93.93,0,0,1,1.05-1,.91.91,0,0,1,.69.25,1.33,1.33,0,0,1,.28.78h0a1.91,1.91,0,0,1,1.8-1,2.05,2.05,0,0,1,1,.27,1.32,1.32,0,0,1,.6.8,2.16,2.16,0,0,1,.79-.82,2.09,2.09,0,0,1,1.05-.25,2,2,0,0,1,1.59.59,2.24,2.24,0,0,1,.53,1.55v2.6a1,1,0,0,1-.3.8A1.27,1.27,0,0,1,22,23a1,1,0,0,1-.29-.8Z"/><path class="cls-7" d="M25,18.51a1,1,0,0,1,.3-.8,1.27,1.27,0,0,1,1.59,0,1,1,0,0,1,.29.8v3.66a1,1,0,0,1-.29.8,1.27,1.27,0,0,1-1.59,0,1,1,0,0,1-.3-.8Zm.36-3.24a1,1,0,0,1,.73-.3,1,1,0,0,1,.73.3,1,1,0,0,1,0,1.46,1,1,0,0,1-.73.3,1,1,0,0,1-.73-1.76Z"/><path class="cls-7" d="M28.36,16.42a1,1,0,0,1,.3-.8,1.25,1.25,0,0,1,1.58,0,1,1,0,0,1,.3.8v5.75a1,1,0,0,1-.3.8,1.25,1.25,0,0,1-1.58,0,1,1,0,0,1-.3-.8Z"/></svg>