<svg id="Camada_1" data-name="Camada 1" xmlns="http://www.w3.org/2000/svg" height="46px" width="46px" viewBox="0 0 46 46"><defs><style>.cls-1{fill:#ddd;}.cls-2{fill:#959290;}.cls-3{fill:#707070;}.cls-4{fill:#868381;}.cls-5{fill:#fff;}.cls-6{fill:#36302f;}.cls-7{fill:#4b8fcc;}</style></defs><path class="cls-1" d="M5,18.17a5.9,5.9,0,0,1-.06-1.92A16.1,16.1,0,0,1,16.17,1.63,12.32,12.32,0,0,1,19.58,1c.11,0,.23,0,.32-.08H22l1.73.25a14.77,14.77,0,0,1,5.49,2,15.8,15.8,0,0,1,5.26,5.12,15.6,15.6,0,0,1,2.38,6.57A16.89,16.89,0,0,1,37,17.55a.74.74,0,0,1-.07.46.14.14,0,0,1,0-.18A15.73,15.73,0,0,1,30.53,28.3a15.65,15.65,0,0,1-10.3,3.18A16,16,0,0,1,5,17.76C5,17.9,5.12,18.05,5,18.17Z"/><path class="cls-2" d="M31.4,31.71q.87,2.45,1.73,4.91c.54,1.51,1.06,3,1.59,4.55.21.62,0,.87-.64.8l-4.41-.48a.72.72,0,0,0-.63.29l-3.06,3c-.5.49-.79.43-1-.23q-1.65-4.73-3.31-9.47l0-.16a1.13,1.13,0,0,1,.54-.1,18.27,18.27,0,0,0,7.56-2.25c.39-.22.75-.48,1.13-.71C31,31.75,31.18,31.58,31.4,31.71Z"/><path class="cls-2" d="M20.25,34.91l-2,5.73c-.45,1.31-.91,2.62-1.37,3.93-.21.61-.51.68-1,.24-1-1-2-2-3-3a1,1,0,0,0-.88-.3c-1.44.17-2.88.31-4.32.45-.53.05-.74-.2-.57-.69q1.65-4.72,3.29-9.46a.34.34,0,0,1,.07-.11c.24-.13.41.05.58.16A16.67,16.67,0,0,0,15.5,34a18.22,18.22,0,0,0,4.33.83A.77.77,0,0,1,20.25,34.91Z"/><path class="cls-3" d="M5,18.17v-.6A16.24,16.24,0,0,0,11.14,28a15.55,15.55,0,0,0,10.55,3.32A16.2,16.2,0,0,0,36.88,17.58l0,.43a15.37,15.37,0,0,1-2.35,7.38,15.63,15.63,0,0,1-3.62,4.07.49.49,0,0,0-.21.26,8.67,8.67,0,0,1-2.09,1.42,15.44,15.44,0,0,1-6,1.87A15.94,15.94,0,0,1,14,31.54a17.75,17.75,0,0,1-2.52-1.49c-.13-.1-.27-.17-.34-.33L9.89,28.56a15.85,15.85,0,0,1-4.8-9.15A5.17,5.17,0,0,1,5,18.17Z"/><path class="cls-4" d="M11.14,29.72a7.45,7.45,0,0,1,1.13.72,16.12,16.12,0,0,0,18.12-.55.61.61,0,0,1,.34-.17l.67,2a18.06,18.06,0,0,0-1.8,1.06,19.13,19.13,0,0,1-5.39,1.9c-.74.13-1.47.21-2.21.28-.12,0-.26,0-.37,0L20.94,33l-.69,1.87a2.36,2.36,0,0,1-1.18,0,18.78,18.78,0,0,1-6.83-2.14,14.26,14.26,0,0,0-1.76-1Z"/><path class="cls-5" d="M8.33,16.87a11.61,11.61,0,0,1,1.48-6.19,12.11,12.11,0,0,1,5-5,12.72,12.72,0,0,1,3.76-1.39,12.55,12.55,0,0,1,10.73,3,12.36,12.36,0,0,1,4,7.09,9.83,9.83,0,0,1,.21,2.48A10.27,10.27,0,0,1,33.15,19a12.46,12.46,0,0,1-2,3.94,12.71,12.71,0,0,1-4.32,3.7,12.21,12.21,0,0,1-5.71,1.43A13.46,13.46,0,0,1,15.65,27a12.86,12.86,0,0,1-2.36-1.42,12.67,12.67,0,0,1-2.88-3,11.41,11.41,0,0,1-2-4.95A4.43,4.43,0,0,1,8.33,16.87Z"/><path class="cls-3" d="M8.33,16.87c.17.68.33,1.38.51,2.06a11.65,11.65,0,0,0,2.28,4.33,13.45,13.45,0,0,0,2.41,2.3,11.37,11.37,0,0,0,5.11,2.18,12.83,12.83,0,0,0,6.64-.55,13.31,13.31,0,0,0,4.08-2.47,12.24,12.24,0,0,0,4.1-7.78c0-.06,0-.1.08-.15a12.06,12.06,0,0,1-2.2,7.27,12.55,12.55,0,0,1-6.09,4.76,12.23,12.23,0,0,1-5.45.72A12.48,12.48,0,0,1,13.35,27a12.64,12.64,0,0,1-4.79-7.52,23.61,23.61,0,0,1-.3-2.37A.31.31,0,0,1,8.33,16.87Z"/><path class="cls-6" d="M25.82,13.46c0-.56,0-1.12,0-1.68,0-.2-.05-.26-.26-.25H23a.59.59,0,0,1-.67-.65c0-1,0-1.9,0-2.85,0-.13-.08-.08-.13-.08H14.75c-.41,0-.58.17-.58.58V23.59c0,.4.17.56.57.56,3.51,0,7,0,10.53,0,.37,0,.54-.17.54-.55,0-1.3,0-2.61,0-3.92a.37.37,0,0,1,.12-.3c.18-.17.35-.35.52-.52s.09-.08.19,0,.22.32.22.55c0,1.42,0,2.83,0,4.25a1.5,1.5,0,0,1-1.54,1.54H14.67a1.5,1.5,0,0,1-1.54-1.54V9.93a13.94,13.94,0,0,1,0-1.71A1.5,1.5,0,0,1,14.68,6.9c1.66,0,3.33,0,5,0h2.64a1.54,1.54,0,0,1,1.24.54l2.89,3.16a1.5,1.5,0,0,1,.41,1,2.23,2.23,0,0,1,0,.82c-.09.24-.35.4-.54.59l-.42.44Z"/><path class="cls-7" d="M31,12.56a1.51,1.51,0,0,1-.32.82A5.42,5.42,0,0,1,30,14c-.07.07-.09.12,0,.19l0,0c.12.12.22.3.35.33s.23-.19.35-.29a.38.38,0,1,1,.54.54L29.94,16.2l-1.88,1.89a.39.39,0,0,1-.48.1.38.38,0,0,1-.2-.41c0-.12.1-.19.17-.27.74-.74,1.47-1.48,2.21-2.21.11-.11.13-.17,0-.27s-.22-.32-.37-.32-.23.21-.35.32l-3.46,3.46c-.19.19-.19.2-.39,0l-1.41-1.41c-.1-.1-.13-.15,0-.26l4.62-4.62a3,3,0,0,1,1-.7A1.22,1.22,0,0,1,31,12.56Z"/><path class="cls-7" d="M17.71,22.36a.28.28,0,0,0,.21-.12,1.23,1.23,0,0,1,1.88,0s0,0,0,0a4.47,4.47,0,0,1,.83-1.92,16.11,16.11,0,0,1,2.53-2.94c.07-.07.11-.06.18,0L24.93,19c.06.06.07.1,0,.17a15.55,15.55,0,0,1-3.37,2.79,5.85,5.85,0,0,1-1.05.48.68.68,0,0,1-.35.06c-.13,0-.18.1-.24.18-.16.25-.35.26-.53,0a.57.57,0,0,0-.87-.15c-.15.09-.28.21-.43.3a.66.66,0,0,1-.71.07.7.7,0,0,1-.26-.69,2.36,2.36,0,0,1,.24-.81,1.52,1.52,0,0,0,.12-.36c0-.24-.1-.35-.32-.27a.94.94,0,0,0-.42.34,5.32,5.32,0,0,0-.58,1.14.94.94,0,0,1-.06.15.27.27,0,0,1-.37.15.26.26,0,0,1-.17-.35,4.65,4.65,0,0,1,.89-1.65,1.12,1.12,0,0,1,.42-.3.83.83,0,0,1,.91.07.87.87,0,0,1,.27.9,2.32,2.32,0,0,1-.16.44A1.56,1.56,0,0,0,17.71,22.36Z"/><path class="cls-6" d="M20,15.36h3.53c.13,0,.28,0,.32.14s-.1.15-.17.22-.37.48-.61.58a2.51,2.51,0,0,1-.87,0H16.55c-.34,0-.55-.17-.56-.46a.48.48,0,0,1,.53-.51H20Z"/><path class="cls-6" d="M21.34,18.1c-.26.33-.51.62-.75.91a.2.2,0,0,1-.18.06H16.47a.48.48,0,0,1,0-.95Z"/><path class="cls-6" d="M18.28,12.63H20a.5.5,0,0,1,.55.49.52.52,0,0,1-.55.48H16.49a.51.51,0,0,1-.52-.32.46.46,0,0,1,.13-.52.5.5,0,0,1,.37-.13Z"/></svg>