<svg xmlns="http://www.w3.org/2000/svg" xmlns:xlink="http://www.w3.org/1999/xlink" width="31" height="30" viewBox="0 0 31 30">
  <defs>
    <clipPath id="clip-path">
      <rect id="Retângulo_176" data-name="Retângulo 176" width="31" height="30" transform="translate(0 -0.191)" fill="none"/>
    </clipPath>
  </defs>
  <g id="Artwork_17" data-name="Artwork 17" transform="translate(15.5 15.191)">
    <g id="Grupo_165" data-name="Grupo 165" transform="translate(-15.5 -15)" clip-path="url(#clip-path)">
      <path id="Caminho_1270" data-name="Caminho 1270" d="M30.669,3.465A3.526,3.526,0,0,0,27.086,0H3.583A3.526,3.526,0,0,0,0,3.465v21.9a3.526,3.526,0,0,0,3.583,3.465h23.5a3.526,3.526,0,0,0,3.583-3.465ZM3.59,1.386H27.072a2.136,2.136,0,0,1,2.157,2.093V6.931H1.433V3.479A2.136,2.136,0,0,1,3.59,1.386M27.079,27.445H3.59a2.136,2.136,0,0,1-2.157-2.093V8.317h27.8V25.352a2.136,2.136,0,0,1-2.157,2.093" transform="translate(0 0.489)" fill="#3156e1"/>
      <path id="Caminho_1271" data-name="Caminho 1271" d="M58.717,58.386h2.938a.693.693,0,1,0,0-1.386H58.717a.693.693,0,1,0,0,1.386" transform="translate(-53.844 -52.561)" fill="#3156e1"/>
      <path id="Caminho_1272" data-name="Caminho 1272" d="M308.717,58.386h2.938a.693.693,0,1,0,0-1.386h-2.938a.693.693,0,1,0,0,1.386" transform="translate(-285.93 -52.561)" fill="#3156e1"/>
      <path id="Caminho_1273" data-name="Caminho 1273" d="M131.436,152.736h-2.1v-2.627a1.517,1.517,0,0,0-1.082-1.442,2.36,2.36,0,0,0,.523-3.368c-.072-.09-.143-.173-.222-.256l-1.211-1.206a.741.741,0,0,0-1.01-.014l-.014.014-1.218,1.206a2.369,2.369,0,0,0,0,3.361,2.706,2.706,0,0,0,.308.256,1.51,1.51,0,0,0-1.082,1.442v2.634h-2.1a2.116,2.116,0,0,0-2.128,2.051v3.167a.723.723,0,0,0,.752.672h11.967a.723.723,0,0,0,.752-.672v-3.167a2.13,2.13,0,0,0-2.135-2.051m-5.31-6.723.7-.693.7.693a1.022,1.022,0,0,1,0,1.449.983.983,0,0,1-1.361.035l-.036-.035a1.029,1.029,0,0,1,0-1.449m-.373,4.1c0-.069.036-.146.107-.146h1.928c.072,0,.107.076.107.146v2.627h-2.15v-2.627Zm-3.533,4.013h9.208a.7.7,0,0,1,.7.665v.721a1.953,1.953,0,0,1-.473-.18,3.8,3.8,0,0,0-1.8-.4,3.971,3.971,0,0,0-1.813.4,2.88,2.88,0,0,1-2.436,0,3.971,3.971,0,0,0-1.813-.4,3.83,3.83,0,0,0-1.806.4,1.7,1.7,0,0,1-.473.18v-.721a.727.727,0,0,1,.709-.665m-.7,3.119v-.312a3.983,3.983,0,0,0,1.089-.347,2.383,2.383,0,0,1,1.182-.263,2.552,2.552,0,0,1,1.218.27,4.357,4.357,0,0,0,3.626,0,2.531,2.531,0,0,1,1.218-.27,2.393,2.393,0,0,1,1.189.263,3.558,3.558,0,0,0,1.089.347v.312Z" transform="translate(-111.494 -133.188)" fill="#3156e1"/>
    </g>
  </g>
</svg>
