<svg xmlns="http://www.w3.org/2000/svg" xmlns:xlink="http://www.w3.org/1999/xlink" width="35.688" height="33" viewBox="0 0 35.688 32.819">
  <defs>
    <clipPath id="clip-path">
      <rect id="Retângulo_156" data-name="Retângulo 156" width="35.689" height="32.819" fill="none"/>
    </clipPath>
  </defs>
  <g id="FORUM" transform="translate(17.844 16.409)">
    <g id="Grupo_157" data-name="Grupo 157" transform="translate(-17.844 -16.409)" clip-path="url(#clip-path)">
      <path id="Caminho_1248" data-name="Caminho 1248" d="M8.283,18.465h7.575a.583.583,0,0,0,0-1.165H8.283a.583.583,0,1,0,0,1.165" transform="translate(-2.092 -4.7)" fill="#1f1c1e"/>
      <path id="Caminho_1249" data-name="Caminho 1249" d="M15.722,18.694H8.147a.947.947,0,0,1,0-1.894h7.575a.947.947,0,1,1,0,1.894M8.147,17.528a.219.219,0,0,0,0,.437h7.575a.219.219,0,1,0,0-.437Z" transform="translate(-1.956 -4.564)" fill="#1f1c1e"/>
      <path id="Caminho_1250" data-name="Caminho 1250" d="M23.432,22.1H8.283a.583.583,0,1,0,0,1.165H23.432a.583.583,0,1,0,0-1.165" transform="translate(-2.092 -6.004)" fill="#1f1c1e"/>
      <path id="Caminho_1251" data-name="Caminho 1251" d="M23.3,23.494H8.147a.947.947,0,0,1,0-1.894H23.3a.947.947,0,0,1,0,1.894M8.147,22.328a.219.219,0,0,0,0,.437H23.3a.219.219,0,0,0,0-.437Z" transform="translate(-1.956 -5.868)" fill="#1f1c1e"/>
      <path id="Caminho_1252" data-name="Caminho 1252" d="M23.432,26.9H8.283a.583.583,0,1,0,0,1.165H23.432a.583.583,0,0,0,0-1.165" transform="translate(-2.092 -7.308)" fill="#1f1c1e"/>
      <path id="Caminho_1253" data-name="Caminho 1253" d="M23.3,28.294H8.147a.947.947,0,0,1,0-1.894H23.3a.947.947,0,0,1,0,1.894M8.147,27.128a.219.219,0,1,0,0,.437H23.3a.219.219,0,0,0,0-.437Z" transform="translate(-1.956 -7.172)" fill="#1f1c1e"/>
      <path id="Caminho_1254" data-name="Caminho 1254" d="M32.037.6H12.08A3.5,3.5,0,0,0,8.657,4.023V6.937H3.923A3.423,3.423,0,0,0,.5,10.433V22.741a3.423,3.423,0,0,0,3.423,3.423H7.492v5.827a.583.583,0,0,0,.364.51h.219l.437-.218,5.681-6.191h9.687A3.423,3.423,0,0,0,27.3,22.741h0l3.059,3.35.437.219h.219a.583.583,0,0,0,.364-.51V19.828h.656A3.423,3.423,0,0,0,35.46,16.4V4.023A3.5,3.5,0,0,0,32.037.6m-5.9,22.141A2.258,2.258,0,0,1,23.879,25H13.9a.583.583,0,0,0-.437.219L8.657,30.535v-4.88a.583.583,0,0,0-.583-.583H3.923a2.258,2.258,0,0,1-2.258-2.331V10.433A2.258,2.258,0,0,1,3.923,8.175H23.879a2.258,2.258,0,0,1,2.258,2.185ZM34.295,16.4a2.258,2.258,0,0,1-2.258,2.258H30.8a.583.583,0,0,0-.583.583v4.88l-2.913-3.2V10.36a3.5,3.5,0,0,0-3.423-3.423H9.822V3.95A2.258,2.258,0,0,1,12.08,1.693H32.037A2.258,2.258,0,0,1,34.295,3.95V16.332Z" transform="translate(-0.136 -0.163)" fill="#1f1c1e"/>
      <path id="Caminho_1255" data-name="Caminho 1255" d="M7.939,32.848H7.575a.947.947,0,0,1-.583-.874V26.439h-3.2A3.86,3.86,0,0,1,0,22.578V10.27A3.86,3.86,0,0,1,3.787,6.482h4.37V3.787A3.86,3.86,0,0,1,11.945,0H31.9a3.86,3.86,0,0,1,3.787,3.86V16.169A3.787,3.787,0,0,1,31.9,19.956H31.61v5.535a.947.947,0,0,1-1.675.656l-2.476-2.841a3.787,3.787,0,0,1-3.715,3.059H14.2L8.667,32.484a.947.947,0,0,1-.728.291M11.945.728A3.059,3.059,0,0,0,8.886,3.787v3.35h-5.1A3.059,3.059,0,0,0,.728,10.27V22.578a3.059,3.059,0,0,0,3.059,3.059H7.72v6.191a.218.218,0,0,0,.146.218h.219l5.754-6.337h9.905A3.059,3.059,0,0,0,26.8,22.578v-.947l.656.656,3.059,3.35h.219a.219.219,0,0,0,.146-.219V19.3H31.9a3.059,3.059,0,0,0,3.059-3.132V3.86A3.132,3.132,0,0,0,31.9.8ZM8.157,31.319V25.492a.219.219,0,0,0-.219-.219H3.787a2.622,2.622,0,0,1-2.622-2.695V10.27A2.622,2.622,0,0,1,3.787,7.648H23.744A2.622,2.622,0,0,1,26.366,10.2V22.578A2.622,2.622,0,0,1,23.744,25.2H13.62ZM23.744,8.3H3.787A1.894,1.894,0,0,0,1.894,10.2V22.578a1.894,1.894,0,0,0,1.894,1.894H7.939a.947.947,0,0,1,.947,1.02v3.933l4.152-4.589a.947.947,0,0,1,.728-.291h9.978a1.894,1.894,0,0,0,1.894-1.967V10.2A1.894,1.894,0,0,0,23.744,8.3m6.7,16.606L26.8,20.9V10.2a3.059,3.059,0,0,0-3.059-3.059H9.323V3.787a2.622,2.622,0,0,1,2.622-2.622H31.9a2.622,2.622,0,0,1,2.622,2.622V16.533A2.622,2.622,0,0,1,31.9,18.791H30.663a.219.219,0,0,0-.219.219Zm-2.913-4.3,2.185,2.4V19.082a.947.947,0,0,1,.947-.947H31.9a1.894,1.894,0,0,0,1.894-1.894V3.86A1.894,1.894,0,0,0,31.9,1.967H11.945A1.894,1.894,0,0,0,10.051,3.86V6.409H23.744A3.86,3.86,0,0,1,27.531,10.2Z" fill="#1f1c1e"/>
    </g>
  </g>
</svg>
