<svg xmlns="http://www.w3.org/2000/svg" xmlns:xlink="http://www.w3.org/1999/xlink" width="29.123" height="29.125" viewBox="0 0 29.123 29.125">
  <defs>
    <clipPath id="clip-path">
      <rect id="Retângulo_158" data-name="Retângulo 158" width="29.123" height="29.125" fill="none"/>
    </clipPath>
  </defs>
  <g id="HOME" transform="translate(14.562 14.563)">
    <g id="Grupo_159" data-name="Grupo 159" transform="translate(-14.562 -14.563)" clip-path="url(#clip-path)">
      <path id="Caminho_1258" data-name="Caminho 1258" d="M30.078,32.008V17.343h2.336a.961.961,0,0,0,.924-.65.924.924,0,0,0-.31-1.042L19.811,5.258a1,1,0,0,0-1.227,0l-4.59,3.607V7.409a.946.946,0,0,0-.946-.946H9.263a.946.946,0,0,0-.946.946v5.928L5.375,15.651a.924.924,0,0,0-.318,1.042.961.961,0,0,0,.924.65H8.317V32.008a1.419,1.419,0,0,0,1.419,1.419h5.2a1.419,1.419,0,0,0,1.419-1.419V23.02a.473.473,0,0,1,.473-.473h4.731a.473.473,0,0,1,.473.473v8.988a1.419,1.419,0,0,0,1.419,1.419h5.2a1.419,1.419,0,0,0,1.419-1.419m-7.1,0V23.02A1.419,1.419,0,0,0,21.563,21.6H16.832a1.419,1.419,0,0,0-1.419,1.419v8.988a.473.473,0,0,1-.473.473h-5.2a.473.473,0,0,1-.473-.473V16.87A.473.473,0,0,0,8.79,16.4H5.959l3.127-2.461.015-.022a.532.532,0,0,0,.155-.325c0-.007.007-.015.007-.03V7.409h3.785V9.841l.015.059a.362.362,0,0,0,.059.177l.03.052.022.015a.821.821,0,0,0,.148.111l.081.03.1.022h.03l.059-.015.1-.022.089-.044.052-.03,5.359-4.213a.059.059,0,0,1,.059,0L32.414,16.4H29.605a.473.473,0,0,0-.473.473V32.008a.473.473,0,0,1-.473.473h-5.2a.473.473,0,0,1-.473-.473" transform="translate(-4.636 -4.674)" fill="#1f1c1e"/>
      <path id="Caminho_1259" data-name="Caminho 1259" d="M24.056,29.1h-5.2a1.8,1.8,0,0,1-1.789-1.789V18.319a.1.1,0,0,0-.1-.1H12.229a.1.1,0,0,0-.1.1v8.988A1.8,1.8,0,0,1,10.337,29.1h-5.2a1.8,1.8,0,0,1-1.789-1.789v-14.3H1.385a1.331,1.331,0,0,1-1.279-.894A1.294,1.294,0,0,1,.55,10.661l2.8-2.2V2.707A1.316,1.316,0,0,1,4.66,1.392H8.444A1.316,1.316,0,0,1,9.76,2.707V3.4L13.752.261a1.367,1.367,0,0,1,1.685,0l13.216,10.4a1.286,1.286,0,0,1,.436,1.456,1.331,1.331,0,0,1-1.286.894H25.844v14.3A1.8,1.8,0,0,1,24.056,29.1M12.229,17.476H16.96a.843.843,0,0,1,.843.843v8.988a1.05,1.05,0,0,0,1.05,1.05h5.2a1.05,1.05,0,0,0,1.05-1.05V12.272h2.705a.6.6,0,0,0,.466-.207H25a.1.1,0,0,0-.1.1V27.307a.843.843,0,0,1-.843.843h-5.2a.843.843,0,0,1-.843-.843V18.319a1.05,1.05,0,0,0-1.05-1.05H12.229a1.05,1.05,0,0,0-1.05,1.05v8.988a.843.843,0,0,1-.843.843h-5.2a.843.843,0,0,1-.843-.843V12.169a.1.1,0,0,0-.1-.1H.912a.591.591,0,0,0,.466.207H4.083V27.307a1.05,1.05,0,0,0,1.05,1.05h5.2a1.05,1.05,0,0,0,1.05-1.05V18.319a.843.843,0,0,1,.843-.843m6.519,9.831a.1.1,0,0,0,.1.1h5.2a.1.1,0,0,0,.1-.1V12.169A.843.843,0,0,1,25,11.326h1.737L14.594,1.746,9.42,5.819,9.4,5.834l-.067.037L9.2,5.937H9.183l-.148.03-.074.015H8.829L8.7,5.952l-.133-.044-.044-.022a1.2,1.2,0,0,1-.2-.148l-.074-.074-.03-.037L8.178,5.56a.732.732,0,0,1-.1-.3L8.06,5.191V3.077H5.029V8.865a.407.407,0,0,1-.015.1.909.909,0,0,1-.244.5L4.7,9.53l-2.284,1.8H4.187a.843.843,0,0,1,.843.843V27.307a.1.1,0,0,0,.1.1h5.2a.1.1,0,0,0,.1-.1V18.319a1.8,1.8,0,0,1,1.789-1.789H16.96a1.8,1.8,0,0,1,1.789,1.789ZM14.594.919a.429.429,0,0,1,.222.059L14.853,1,28.417,11.71a.554.554,0,0,0-.222-.458L14.986.845a.628.628,0,0,0-.776,0L9.021,4.925V2.707a.577.577,0,0,0-.577-.577H4.66a.577.577,0,0,0-.577.577V8.813L1,11.245a.562.562,0,0,0-.222.444L4.231,8.975l.022-.022a.163.163,0,0,0,.044-.1V2.338H8.821V5.176l.022.03.03.022h.081l.03-.022h.022L14.358.992,14.38.978a.421.421,0,0,1,.207-.052m-9.565,8h0" transform="translate(-0.033 0.028)" fill="#1f1c1e"/>
    </g>
  </g>
</svg>
