<svg xmlns="http://www.w3.org/2000/svg" xmlns:xlink="http://www.w3.org/1999/xlink" width="41.173" height="32.42" viewBox="0 0 41.173 32.42">
  <defs>
    <clipPath id="clip-path">
      <rect id="Retângulo_237" data-name="Retângulo 237" width="41.173" height="32.42" fill="none"/>
    </clipPath>
  </defs>
  <g id="Artwork_24" data-name="Artwork 24" transform="translate(20.587 16.21)">
    <g id="Grupo_254" data-name="Grupo 254" transform="translate(-20.587 -16.21)" clip-path="url(#clip-path)">
      <path id="Caminho_2478" data-name="Caminho 2478" d="M151.239,11.355l3.992-3.885a.729.729,0,0,0,.182-.737.721.721,0,0,0-.58-.48l-5.508-.8-2.468-5a.721.721,0,0,0-1.284,0l-2.468,4.994-5.516.8a.721.721,0,0,0-.58.489.7.7,0,0,0,.182.729l3.992,3.885-.944,5.5a.721.721,0,0,0,.29.7.712.712,0,0,0,.754.05l4.928-2.592,4.928,2.592a.873.873,0,0,0,.762-.058h0a.7.7,0,0,0,.273-.7Zm-1.458-.124.762,4.431-3.959-2.079a1.756,1.756,0,0,0-.364-.1,1.7,1.7,0,0,0-.356.1l-3.951,2.079.762-4.44a.7.7,0,0,0-.207-.629l-3.222-3.147L143.7,6.8a.721.721,0,0,0,.53-.389l1.988-4.034,1.988,4.034a.687.687,0,0,0,.53.389l4.473.654L149.988,10.6a.737.737,0,0,0-.207.638" transform="translate(-125.629 -0.049)" fill="#373737"/>
      <path id="Caminho_2479" data-name="Caminho 2479" d="M288.339,189.946l3.992-3.885a.7.7,0,0,0,.182-.729.721.721,0,0,0-.58-.489l-5.508-.8-2.468-4.994a.721.721,0,0,0-1.284,0l-2.468,4.994-5.516.8a.721.721,0,0,0-.58.489.7.7,0,0,0,.182.729l3.992,3.885-.944,5.5a.721.721,0,0,0,.29.7.712.712,0,0,0,.754.05l4.928-2.592,4.936,2.592a.869.869,0,0,0,.762-.058.7.7,0,0,0,.273-.7Zm-1.474-.133.762,4.431-3.951-2.071a1.756,1.756,0,0,0-.364-.1,1.7,1.7,0,0,0-.356.1L279,194.253l.762-4.44a.7.7,0,0,0-.207-.629l-3.222-3.139,4.456-.646a.721.721,0,0,0,.53-.389l1.988-4.034,1.988,4.034a.687.687,0,0,0,.53.389l4.464.646-3.23,3.139a.737.737,0,0,0-.207.638" transform="translate(-251.373 -163.856)" fill="#373737"/>
      <path id="Caminho_2480" data-name="Caminho 2480" d="M14.239,189.946l3.992-3.885a.729.729,0,0,0,.182-.737.712.712,0,0,0-.572-.48h-.008l-5.516-.8-2.468-4.994a.721.721,0,0,0-1.284,0l-2.46,4.986-5.516.8a.721.721,0,0,0-.58.489.7.7,0,0,0,.182.729l3.992,3.893-.944,5.491a.721.721,0,0,0,.29.7.712.712,0,0,0,.754.05L9.211,193.6l4.936,2.592a.869.869,0,0,0,.762-.058.7.7,0,0,0,.273-.7Zm-1.474-.133.762,4.431-3.943-2.071a1.756,1.756,0,0,0-.364-.1,1.7,1.7,0,0,0-.356.1L4.9,194.253l.762-4.44a.7.7,0,0,0-.207-.629l-3.23-3.139,4.456-.646a.721.721,0,0,0,.53-.389L9.2,180.976l1.988,4.034a.687.687,0,0,0,.53.389l4.464.646-3.222,3.139a.737.737,0,0,0-.207.638" transform="translate(0.024 -163.856)" fill="#373737"/>
    </g>
  </g>
</svg>
