<svg id="Camada_1" data-name="Camada 1" xmlns="http://www.w3.org/2000/svg" height="55" width="55" viewBox="0 0 46 46"><defs><style>.cls-1{fill:#fe646f;}.cls-2{fill:#fb2b39;}.cls-3{fill:#fee087;}.cls-4{fill:#fed54e;}.cls-5{fill:#fdb341;}.cls-6{fill:#fd9800;}.cls-7{font-size:10.59px;fill:#fdf0c7;font-family:HelveticaRounded-Black;font-weight:800;}</style></defs><path class="cls-1" d="M9.18,40.4C9,39.28,8.84,38.16,8.77,37a1.07,1.07,0,0,0-1.12-1.17c-1.58-.16-3.15-.38-4.73-.58a3.1,3.1,0,0,1-2-.78.64.64,0,0,1,0-.79A16.1,16.1,0,0,1,3.5,30.85c1.33-1.37,2.7-2.7,4.06-4.05a6.07,6.07,0,0,1,2.74,2.61,1.78,1.78,0,0,1,.23.53,4.58,4.58,0,0,0,3.59,3.34,2.83,2.83,0,0,1,1.75.73c-1.41,1.61-3,3-4.49,4.58-.45.46-.91.93-1.38,1.37C9.77,40.18,9.57,40.47,9.18,40.4Z"/><path class="cls-2" d="M45.11,34.5a3.78,3.78,0,0,1-2.72.81.9.9,0,0,1-1-.19A41.89,41.89,0,0,1,36,29.57a3.46,3.46,0,0,1,2.44-2.81c2,2,4,4,6,6a3.16,3.16,0,0,1,.47.62C45,33.5,45.37,34.14,45.11,34.5Z"/><path class="cls-3" d="M15.81,34.11a17.69,17.69,0,0,0-2.19-.75,3.9,3.9,0,0,1-3.09-2.8,8.4,8.4,0,0,0-3-3.76,4.55,4.55,0,0,1-.63-3.93,5.92,5.92,0,0,0-.62-3.33,3.91,3.91,0,0,1,.54-4,6.92,6.92,0,0,0,1.34-3.71A3.86,3.86,0,0,1,10.53,8.5a7.19,7.19,0,0,0,3-2.75A3.53,3.53,0,0,1,16.81,4,7.71,7.71,0,0,0,21,2.93a2.58,2.58,0,0,1,1.47-.48,10.62,10.62,0,0,1,3.83,3.37c.24.31.44.71-.15.94a18.29,18.29,0,0,1-2.33-.28,12.87,12.87,0,0,0-13.65,12.6c0,5.6,2.58,9.58,7.5,12a11.89,11.89,0,0,0,9.72.36,2.65,2.65,0,0,1,1.32-.34.34.34,0,0,1,.17.41,11.5,11.5,0,0,1-3,4.74,9.89,9.89,0,0,0-5.37,0,8.73,8.73,0,0,1-2.05,0A5.32,5.32,0,0,1,15.81,34.11Z"/><path class="cls-4" d="M25.87,36.24a20.32,20.32,0,0,0,2.92-5.07c-.08-.33.2-.42.38-.58a12.36,12.36,0,0,0,6.61-10.78C36,14,32.69,9.28,27.18,7.18c-.31-.2-.84,0-.93-.57.29-.65-.3-.92-.59-1.26a25.6,25.6,0,0,0-3.17-2.9,3,3,0,0,1,2.17.41c1.52,1,3.28,1,5,1.12A3,3,0,0,1,32,5.33a8,8,0,0,0,3.17,3,3.87,3.87,0,0,1,2.49,3.55,6.67,6.67,0,0,0,1.42,3.59,3.88,3.88,0,0,1,.48,4.15A5.8,5.8,0,0,0,39.15,23a4.73,4.73,0,0,1-.75,3.73c-1,.78-2,1.48-2.37,2.82-.36,1.8-1.16,3.31-3.07,3.79a9.81,9.81,0,0,0-4.12,2.17,1.92,1.92,0,0,1-1.26.69Z"/><path class="cls-1" d="M27.58,36.23c1.67-1.33,3.26-2.75,5.5-3.16A3,3,0,0,0,35.33,31a12.77,12.77,0,0,1,.7-1.38c1.26,1.25,2.51,2.53,3.79,3.76.78.75,1.41,1.71,2.57,2-1.35.19-2.7.41-4.06.55A1.05,1.05,0,0,0,37.24,37c-.16,1.79-.38,3.57-.58,5.35a1.32,1.32,0,0,1-.73,1.2,1.36,1.36,0,0,1-1.52-.39Q31,39.69,27.58,36.23Z"/><path class="cls-2" d="M15.81,34.11l2.64,2.15-6.57,6.6c-.5.5-1.06,1-1.8.67s-.73-.94-.77-1.57-.08-1-.13-1.56l5.7-5.62C15.16,34.51,15.36,34.14,15.81,34.11Z"/><path class="cls-5" d="M29.19,30.81l-.4.36a13.4,13.4,0,0,1-5.65,1.34,13.18,13.18,0,0,1-9.69-22.19A12.63,12.63,0,0,1,25.86,6.56c.12,0,.26,0,.39.05.24.35.73,0,1,.35A23.41,23.41,0,0,1,31,18.56a30.19,30.19,0,0,1-.19,6.85A17.66,17.66,0,0,1,29.19,30.81Z"/><path class="cls-6" d="M29.19,30.81c.37-1.41.72-2.82,1.11-4.23a12.44,12.44,0,0,0,.45-3.26,31.28,31.28,0,0,0-.76-9.4,28,28,0,0,0-2.6-6.28c-.12-.2-.39-.39-.16-.68A12.86,12.86,0,0,1,35.9,17.49a13,13,0,0,1-6.53,13.26A1,1,0,0,1,29.19,30.81Z"/><text class="cls-7" transform="translate(15.41 18.16)">20<tspan x="-1.55" y="9">mil</tspan></text></svg>