<svg xmlns="http://www.w3.org/2000/svg" xmlns:xlink="http://www.w3.org/1999/xlink" width="60" height="32" viewBox="0 0 60 32">
  <defs>
    <clipPath id="clip-path">
      <rect id="Ret창ngulo_333" data-name="Ret창ngulo 333" width="21" height="24" transform="translate(0 0)" fill="none"/>
    </clipPath>
  </defs>
  <g id="TIK_TOK" data-name="TIK TOK" transform="translate(-0.22)">
    <rect id="Ret창ngulo_332" data-name="Ret창ngulo 332" width="60" height="32" rx="16" transform="translate(0.22)" fill="#f5f6fa"/>
    <g id="Artwork_27" data-name="Artwork 27" transform="translate(28.72 15)">
      <g id="Grupo_365" data-name="Grupo 365" transform="translate(-10.5 -12)">
        <g id="Grupo_362" data-name="Grupo 362" transform="translate(0 0)" clip-path="url(#clip-path)">
          <path id="Caminho_3464" data-name="Caminho 3464" d="M63.354,159.9a3.353,3.353,0,0,0-1.723,6.234,3.311,3.311,0,0,1-.529-1.759,3.348,3.348,0,0,1,3.361-3.4,3.44,3.44,0,0,1,1.059.168v-3.76a7.241,7.241,0,0,0-1.059-.081h-.049v2.76a3.441,3.441,0,0,0-1.059-.168" transform="translate(-56.197 -147.523)" fill="#f00044"/>
        </g>
        <g id="Grupo_363" data-name="Grupo 363" transform="translate(0 0)" clip-path="url(#clip-path)">
          <path id="Caminho_3465" data-name="Caminho 3465" d="M231.091,18H230.1a5.738,5.738,0,0,0,2.148,3.456A5.811,5.811,0,0,1,231.091,18" transform="translate(-215.835 -16.881)" fill="#f00044"/>
          <path id="Caminho_3466" data-name="Caminho 3466" d="M62.752,108.4a5.711,5.711,0,0,1-1.059-.1v2.691a9.081,9.081,0,0,1-3.619-.74,9.42,9.42,0,0,1-2.056-1.212l.018,8.292a7.018,7.018,0,0,1-5.97,6.912,7.2,7.2,0,0,1-1.059.081,6.966,6.966,0,0,1-4.308-1.473,6.315,6.315,0,0,0,.449.491,7,7,0,0,0,4.973,2.057,7.2,7.2,0,0,0,1.059-.081,7.018,7.018,0,0,0,5.97-6.912l-.068-8.292a9.046,9.046,0,0,0,2.056,1.212,9.2,9.2,0,0,0,3.613.733" transform="translate(-41.846 -101.568)" fill="#f00044"/>
        </g>
        <g id="Grupo_364" data-name="Grupo 364" transform="translate(0 0)" clip-path="url(#clip-path)">
          <path id="Caminho_3467" data-name="Caminho 3467" d="M3.485,143.238a6.988,6.988,0,0,1,4.93-2.064v-.995a7.241,7.241,0,0,0-1.059-.081A7.017,7.017,0,0,0,2.39,152.083a7.062,7.062,0,0,0,.659.584A6.984,6.984,0,0,1,1.436,148.2a7.065,7.065,0,0,1,2.056-4.96" transform="translate(-0.207 -131.391)" fill="#08fff9"/>
          <path id="Caminho_3468" data-name="Caminho 3468" d="M268.622,75.751v-.995h-.006A5.6,5.6,0,0,1,265.2,73.6a5.631,5.631,0,0,0,3.422,2.157" transform="translate(-248.775 -69.025)" fill="#08fff9"/>
          <path id="Caminho_3469" data-name="Caminho 3469" d="M89.428,20.9a3.433,3.433,0,0,0,1.249-.162,3.36,3.36,0,0,0,2.3-3.182V1.869h2.64A5.854,5.854,0,0,1,95.515.8H91.878V16.476a3.359,3.359,0,0,1-2.3,3.182,3.245,3.245,0,0,1-1.243.162,3.361,3.361,0,0,1-1.533-.472A3.361,3.361,0,0,0,89.44,20.9" transform="translate(-81.355 -0.75)" fill="#08fff9"/>
          <path id="Caminho_3470" data-name="Caminho 3470" d="M25.379,39.543a7.018,7.018,0,0,0,5.97-6.912l-.018-8.292a9.046,9.046,0,0,0,2.056,1.212,9.2,9.2,0,0,0,3.619.74V23.606a5.631,5.631,0,0,1-3.422-2.157A5.713,5.713,0,0,1,31.436,18H28.789V33.676a3.359,3.359,0,0,1-2.3,3.182,3.245,3.245,0,0,1-1.243.162,3.36,3.36,0,0,1-2.64-1.541,3.347,3.347,0,0,1,1.717-6.228,3.44,3.44,0,0,1,1.059.168v-2.76a7.013,7.013,0,0,0-5.367,11.486,6.978,6.978,0,0,0,4.308,1.473,6.627,6.627,0,0,0,1.059-.075" transform="translate(-17.164 -16.881)"/>
        </g>
      </g>
    </g>
  </g>
</svg>
