<svg xmlns="http://www.w3.org/2000/svg" xmlns:xlink="http://www.w3.org/1999/xlink" width="61" height="32" viewBox="0 0 61 32">
  <defs>
    <clipPath id="clip-path">
      <rect id="Ret창ngulo_330" data-name="Ret창ngulo 330" width="26" height="21" transform="translate(0 0)" fill="none"/>
    </clipPath>
  </defs>
  <g id="TWITTER" transform="translate(0)">
    <rect id="Ret창ngulo_188" data-name="Ret창ngulo 188" width="61" height="32" rx="16" transform="translate(0)" fill="#03a9f4"/>
    <g id="Artwork_26" data-name="Artwork 26" transform="translate(30 16.5)">
      <g id="Artwork_26-2" data-name="Artwork 26" transform="translate(-13 -10.5)" clip-path="url(#clip-path)">
        <path id="Caminho_3462" data-name="Caminho 3462" d="M25.362,2.64a10.535,10.535,0,0,1-3,.853A5.334,5.334,0,0,0,24.654.513a10.168,10.168,0,0,1-3.3,1.305A5.071,5.071,0,0,0,15.652.5a5.4,5.4,0,0,0-3.288,5.011,5.755,5.755,0,0,0,.119,1.228A14.546,14.546,0,0,1,1.763,1.093a5.519,5.519,0,0,0,1.6,7.21A5,5,0,0,1,1.015,7.64V7.7A5.372,5.372,0,0,0,5.181,13a5.015,5.015,0,0,1-1.362.18,4.436,4.436,0,0,1-.986-.093,5.276,5.276,0,0,0,4.859,3.756,10.208,10.208,0,0,1-6.449,2.3A9.392,9.392,0,0,1,0,19.069a14.256,14.256,0,0,0,7.975,2.42c9.57,0,14.8-8.222,14.8-15.349,0-.236-.01-.468-.02-.7a10.6,10.6,0,0,0,2.606-2.8" transform="translate(0.329 -0.348)" fill="#fff"/>
      </g>
    </g>
  </g>
</svg>
