<svg xmlns="http://www.w3.org/2000/svg" xmlns:xlink="http://www.w3.org/1999/xlink" width="60" height="32" viewBox="0 0 60 32">
  <defs>
    <clipPath id="clip-path">
      <rect id="Ret창ngulo_323" data-name="Ret창ngulo 323" width="22.369" height="22.478" fill="none"/>
    </clipPath>
  </defs>
  <g id="WHATS" transform="translate(-0.441)">
    <rect id="Ret창ngulo_193" data-name="Ret창ngulo 193" width="60" height="32" rx="16" transform="translate(0.441)" fill="#31d631"/>
    <g id="Artwork_29" data-name="Artwork 29" transform="translate(30.626 16.239)">
      <g id="Grupo_355" data-name="Grupo 355" transform="translate(-11.185 -11.239)" clip-path="url(#clip-path)">
        <path id="Caminho_3455" data-name="Caminho 3455" d="M19.11,3.265A11.142,11.142,0,0,0,1.578,16.7L0,22.477l5.906-1.55a11.127,11.127,0,0,0,5.323,1.357h0A11.144,11.144,0,0,0,19.11,3.265M11.232,20.4h0a9.246,9.246,0,0,1-4.711-1.29l-.338-.2-3.5.918.935-3.417-.221-.352A9.257,9.257,0,1,1,11.232,20.4m5.076-6.933c-.278-.141-1.645-.812-1.9-.907s-.439-.141-.626.141-.717.907-.882,1.09-.323.207-.6.07a7.518,7.518,0,0,1-2.239-1.382,8.413,8.413,0,0,1-1.547-1.927c-.162-.278,0-.415.123-.57a7.461,7.461,0,0,0,.7-.953A.516.516,0,0,0,9.3,8.542c-.07-.141-.626-1.508-.858-2.067S7.991,6.007,7.819,6s-.348-.011-.534-.011a1.021,1.021,0,0,0-.742.348,3.128,3.128,0,0,0-.974,2.32A5.445,5.445,0,0,0,6.7,11.533a12.384,12.384,0,0,0,4.753,4.2,15.912,15.912,0,0,0,1.586.587,3.8,3.8,0,0,0,1.754.109,2.877,2.877,0,0,0,1.877-1.322,2.31,2.31,0,0,0,.162-1.322c-.07-.116-.257-.186-.534-.323" transform="translate(0 0.001)" fill="#fff"/>
      </g>
    </g>
  </g>
</svg>
